<svg width="758" height="152" viewBox="0 0 758 152" fill="none" xmlns="http://www.w3.org/2000/svg">
<path d="M757.486 108.52C757.486 115.027 756.312 120.947 753.966 126.28C751.619 131.507 748.419 135.987 744.366 139.72C740.312 143.347 735.619 146.173 730.286 148.2C724.952 150.227 719.246 151.24 713.166 151.24C707.192 151.24 701.486 150.227 696.046 148.2C690.712 146.173 686.019 143.347 681.966 139.72C678.019 135.987 674.872 131.507 672.526 126.28C670.179 120.947 669.006 115.027 669.006 108.52C669.006 102.013 670.179 96.1467 672.526 90.92C674.872 85.6933 678.019 81.2667 681.966 77.64C686.019 74.0133 690.712 71.24 696.046 69.32C701.486 67.4 707.192 66.44 713.166 66.44C719.246 66.44 724.952 67.4 730.286 69.32C735.619 71.24 740.312 74.0133 744.366 77.64C748.419 81.2667 751.619 85.6933 753.966 90.92C756.312 96.1467 757.486 102.013 757.486 108.52ZM732.206 108.52C732.206 105.96 731.779 103.453 730.926 101C730.072 98.5467 728.846 96.4133 727.246 94.6C725.646 92.68 723.672 91.1333 721.326 89.96C718.979 88.7867 716.259 88.2 713.166 88.2C710.072 88.2 707.352 88.7867 705.006 89.96C702.659 91.1333 700.686 92.68 699.086 94.6C697.592 96.4133 696.419 98.5467 695.566 101C694.819 103.453 694.446 105.96 694.446 108.52C694.446 111.08 694.819 113.587 695.566 116.04C696.419 118.493 697.646 120.733 699.246 122.76C700.846 124.68 702.819 126.227 705.166 127.4C707.512 128.573 710.232 129.16 713.326 129.16C716.419 129.16 719.139 128.573 721.486 127.4C723.832 126.227 725.806 124.68 727.406 122.76C729.006 120.733 730.179 118.493 730.926 116.04C731.779 113.587 732.206 111.08 732.206 108.52Z" fill="#2D2D2D"/>
<path d="M609.953 148.68V105.16C609.953 102.92 609.793 100.787 609.473 98.76C609.153 96.6267 608.567 94.8133 607.713 93.32C606.86 91.8267 605.687 90.6533 604.193 89.8C602.807 88.84 600.94 88.36 598.593 88.36C596.353 88.36 594.38 88.84 592.673 89.8C591.073 90.76 589.687 92.04 588.513 93.64C587.447 95.24 586.646 97.1067 586.113 99.24C585.58 101.267 585.313 103.4 585.313 105.64V148.68H559.073V103.24C559.073 98.6533 558.167 95.0267 556.353 92.36C554.54 89.6933 551.66 88.36 547.713 88.36C543.553 88.36 540.3 90.0133 537.953 93.32C535.713 96.6267 534.593 100.68 534.593 105.48V148.68H508.193V69H533.633V80.04H533.953C534.913 78.3333 536.087 76.68 537.473 75.08C538.967 73.48 540.727 72.0933 542.753 70.92C544.78 69.64 547.02 68.6267 549.473 67.88C552.033 67.1333 554.807 66.76 557.793 66.76C563.553 66.76 568.407 67.9333 572.353 70.28C576.407 72.6267 579.553 75.9867 581.793 80.36C584.46 76.2 587.873 72.8933 592.033 70.44C596.193 67.9867 601.26 66.76 607.233 66.76C612.673 66.76 617.207 67.7733 620.833 69.8C624.567 71.72 627.553 74.28 629.793 77.48C632.033 80.5733 633.633 84.0933 634.593 88.04C635.66 91.88 636.193 95.6667 636.193 99.4V148.68H609.953Z" fill="#2D2D2D"/>
<path d="M441.392 148.68V137.64H441.072C440.112 139.453 438.832 141.16 437.232 142.76C435.739 144.36 433.925 145.747 431.792 146.92C429.765 148.093 427.472 149.053 424.912 149.8C422.459 150.547 419.845 150.92 417.072 150.92C411.739 150.92 407.205 149.96 403.472 148.04C399.845 146.12 396.859 143.667 394.512 140.68C392.272 137.587 390.619 134.12 389.552 130.28C388.592 126.333 388.112 122.333 388.112 118.28V69H414.512V112.2C414.512 114.44 414.672 116.573 414.992 118.6C415.312 120.627 415.899 122.44 416.752 124.04C417.712 125.64 418.939 126.92 420.432 127.88C421.925 128.733 423.899 129.16 426.352 129.16C430.939 129.16 434.405 127.453 436.752 124.04C439.205 120.627 440.432 116.627 440.432 112.04V69H466.672V148.68H441.392Z" fill="#2D2D2D"/>
<path d="M331.411 148.68H303.091L271.731 69H300.691L317.491 120.68H317.971L334.771 69H362.771L331.411 148.68Z" fill="#2D2D2D"/>
<path d="M226.698 99.72C226.698 95.56 225.365 91.9867 222.698 89C220.138 86.0133 216.245 84.52 211.018 84.52C208.458 84.52 206.112 84.9467 203.978 85.8C201.845 86.5467 199.978 87.6133 198.378 89C196.778 90.3867 195.498 92.04 194.538 93.96C193.578 95.7733 193.045 97.6933 192.938 99.72H226.698ZM250.858 109.8C250.858 110.867 250.858 111.933 250.858 113C250.858 114.067 250.805 115.08 250.698 116.04H192.938C193.152 118.28 193.792 120.307 194.858 122.12C196.032 123.933 197.472 125.533 199.178 126.92C200.992 128.2 202.965 129.213 205.098 129.96C207.338 130.707 209.632 131.08 211.978 131.08C216.138 131.08 219.658 130.333 222.538 128.84C225.418 127.24 227.765 125.213 229.578 122.76L247.818 134.28C244.085 139.72 239.125 143.933 232.938 146.92C226.858 149.8 219.765 151.24 211.658 151.24C205.685 151.24 200.031 150.333 194.698 148.52C189.365 146.6 184.671 143.88 180.618 140.36C176.671 136.733 173.525 132.307 171.178 127.08C168.938 121.853 167.818 115.88 167.818 109.16C167.818 102.653 168.938 96.7867 171.178 91.56C173.418 86.2267 176.458 81.7467 180.298 78.12C184.138 74.3867 188.672 71.5067 193.898 69.48C199.125 67.4533 204.778 66.44 210.858 66.44C216.725 66.44 222.112 67.4533 227.018 69.48C231.925 71.4 236.138 74.2267 239.658 77.96C243.178 81.6933 245.898 86.2267 247.818 91.56C249.845 96.8933 250.858 102.973 250.858 109.8Z" fill="#2D2D2D"/>
<path d="M94.5 148.68L34.65 51.45H34.02L34.86 148.68H0V0H40.95L100.59 97.02H101.22L100.38 0H135.24V148.68H94.5Z" fill="#FF6600"/>
</svg>
