<svg width="878" height="147" viewBox="0 0 878 147" fill="none" xmlns="http://www.w3.org/2000/svg">
<path d="M875.1 88.1146C875.1 96.0446 873.67 103.26 870.81 109.76C867.95 116.13 864.05 121.59 859.11 126.14C854.17 130.56 848.45 134.005 841.95 136.475C835.45 138.945 828.495 140.18 821.085 140.18C813.805 140.18 806.85 138.945 800.22 136.475C793.72 134.005 788 130.56 783.06 126.14C778.25 121.59 774.415 116.13 771.555 109.76C768.695 103.26 767.265 96.0446 767.265 88.1146C767.265 80.1846 768.695 73.0346 771.555 66.6646C774.415 60.2946 778.25 54.8996 783.06 50.4796C788 46.0596 793.72 42.6796 800.22 40.3396C806.85 37.9996 813.805 36.8296 821.085 36.8296C828.495 36.8296 835.45 37.9996 841.95 40.3396C848.45 42.6796 854.17 46.0596 859.11 50.4796C864.05 54.8996 867.95 60.2946 870.81 66.6646C873.67 73.0346 875.1 80.1846 875.1 88.1146ZM844.29 88.1146C844.29 84.9946 843.77 81.9396 842.73 78.9496C841.69 75.9596 840.195 73.3596 838.245 71.1496C836.295 68.8096 833.89 66.9246 831.03 65.4946C828.17 64.0646 824.855 63.3496 821.085 63.3496C817.315 63.3496 814 64.0646 811.14 65.4946C808.28 66.9246 805.875 68.8096 803.925 71.1496C802.105 73.3596 800.675 75.9596 799.635 78.9496C798.725 81.9396 798.27 84.9946 798.27 88.1146C798.27 91.2346 798.725 94.2896 799.635 97.2796C800.675 100.27 802.17 103 804.12 105.47C806.07 107.81 808.475 109.695 811.335 111.125C814.195 112.555 817.51 113.27 821.28 113.27C825.05 113.27 828.365 112.555 831.225 111.125C834.085 109.695 836.49 107.81 838.44 105.47C840.39 103 841.82 100.27 842.73 97.2796C843.77 94.2896 844.29 91.2346 844.29 88.1146Z" fill="#2D2D2D"/>
<path d="M704.314 137.06V84.0196C704.314 81.2896 704.119 78.6896 703.729 76.2196C703.339 73.6196 702.624 71.4096 701.584 69.5896C700.544 67.7696 699.114 66.3396 697.294 65.2996C695.604 64.1296 693.329 63.5446 690.469 63.5446C687.739 63.5446 685.334 64.1296 683.254 65.2996C681.304 66.4696 679.614 68.0296 678.184 69.9796C676.884 71.9296 675.909 74.2046 675.259 76.8046C674.609 79.2746 674.284 81.8746 674.284 84.6046V137.06H642.304V81.6796C642.304 76.0896 641.199 71.6696 638.989 68.4196C636.779 65.1696 633.269 63.5446 628.459 63.5446C623.389 63.5446 619.424 65.5596 616.564 69.5896C613.834 73.6196 612.469 78.5596 612.469 84.4096V137.06H580.294V39.9496H611.299V53.4046H611.689C612.859 51.3246 614.289 49.3096 615.979 47.3596C617.799 45.4096 619.944 43.7196 622.414 42.2896C624.884 40.7296 627.614 39.4946 630.604 38.5846C633.724 37.6746 637.104 37.2196 640.744 37.2196C647.764 37.2196 653.679 38.6496 658.489 41.5096C663.429 44.3696 667.264 48.4646 669.994 53.7946C673.244 48.7246 677.404 44.6946 682.474 41.7046C687.544 38.7146 693.719 37.2196 700.999 37.2196C707.629 37.2196 713.154 38.4546 717.574 40.9246C722.124 43.2646 725.764 46.3846 728.494 50.2846C731.224 54.0546 733.174 58.3446 734.344 63.1546C735.644 67.8346 736.294 72.4496 736.294 76.9996V137.06H704.314Z" fill="#2D2D2D"/>
<path d="M512.773 137.06V123.605H512.383C511.213 125.815 509.653 127.895 507.703 129.845C505.883 131.795 503.673 133.485 501.073 134.915C498.603 136.345 495.809 137.515 492.689 138.425C489.699 139.335 486.513 139.79 483.133 139.79C476.633 139.79 471.109 138.62 466.559 136.28C462.139 133.94 458.498 130.95 455.638 127.31C452.908 123.54 450.894 119.315 449.594 114.635C448.424 109.825 447.839 104.95 447.839 100.01V39.9496H480.013V92.5996C480.013 95.3296 480.209 97.9296 480.599 100.4C480.989 102.87 481.703 105.08 482.743 107.03C483.914 108.98 485.408 110.54 487.228 111.71C489.048 112.75 491.454 113.27 494.444 113.27C500.034 113.27 504.259 111.19 507.118 107.03C510.109 102.87 511.603 97.9946 511.603 92.4046V39.9496H543.583V137.06H512.773Z" fill="#2D2D2D"/>
<path d="M349.457 39.4496L349.569 39.7953L369.861 102.217L390.153 39.7953L390.266 39.4496H425.488L425.219 40.1332L386.999 137.243L386.874 137.56H351.679L351.554 137.243L313.334 40.1332L313.064 39.4496H349.457Z" fill="#2D2D2D" stroke="black"/>
<path d="M246.192 36.3296C253.397 36.3296 260.024 37.574 266.068 40.0688H266.069C272.116 42.435 277.314 45.9216 281.656 50.5268C285.996 55.1299 289.344 60.7129 291.705 67.2671L291.934 67.8852C294.276 74.3015 295.442 81.5668 295.442 89.6743V93.5747C295.442 94.8911 295.376 96.1445 295.244 97.3344L295.195 97.7798H224.91C225.21 100.22 225.947 102.433 227.117 104.425C228.513 106.581 230.225 108.486 232.255 110.138C234.422 111.666 236.779 112.877 239.33 113.77C242.009 114.663 244.751 115.11 247.557 115.11C252.566 115.11 256.77 114.21 260.191 112.438C263.64 110.52 266.442 108.098 268.605 105.172L268.881 104.798L269.274 105.046L291.503 119.086L291.943 119.364L291.649 119.792C287.048 126.497 280.934 131.688 273.319 135.365L273.316 135.367C265.827 138.914 257.106 140.679 247.166 140.679C239.835 140.679 232.89 139.567 226.335 137.338L226.328 137.335C219.773 134.976 213.998 131.63 209.009 127.297L208.998 127.288C204.135 122.819 200.261 117.366 197.375 110.939L197.372 110.931C194.612 104.489 193.237 97.1403 193.237 88.895C193.237 80.9082 194.611 73.6903 197.371 67.2505C200.125 60.6926 203.868 55.1728 208.603 50.7007C213.332 46.1041 218.914 42.561 225.341 40.0688C231.774 37.5747 238.725 36.3296 246.192 36.3296ZM246.387 59.3647C243.324 59.3647 240.527 59.8753 237.993 60.8891L237.982 60.893L237.972 60.8969C235.428 61.7875 233.208 63.0567 231.309 64.7026C229.41 66.3489 227.89 68.3113 226.749 70.5932L226.744 70.604C225.691 72.5925 225.074 74.6863 224.888 76.8891H264.991C264.887 72.1512 263.306 68.0822 260.248 64.6577L260.242 64.6499V64.6489C257.245 61.1539 252.661 59.3648 246.387 59.3647Z" fill="#2D2D2D" stroke="black"/>
<path d="M875.101 88.1143C875.101 80.4321 873.758 73.4818 871.074 67.2637L870.811 66.665C868.04 60.494 864.293 55.2374 859.57 50.8965L859.11 50.4795C854.479 46.3358 849.162 43.1057 843.16 40.79L841.95 40.3398C835.45 37.9998 828.495 36.8291 821.085 36.8291C813.805 36.8291 806.851 37.9999 800.221 40.3398C793.721 42.6798 788.001 46.0596 783.061 50.4795C778.251 54.8995 774.416 60.295 771.556 66.665L771.291 67.2637C768.607 73.4818 767.266 80.4321 767.266 88.1143L767.27 88.8555C767.356 96.4945 768.785 103.463 771.556 109.76C774.416 116.13 778.251 121.59 783.061 126.14C788.001 130.56 793.721 134.005 800.221 136.475C806.436 138.79 812.937 140.02 819.724 140.165L821.085 140.18C828.264 140.18 835.015 139.02 841.34 136.702L841.95 136.475C848.044 134.159 853.452 130.986 858.175 126.957L859.11 126.14C863.896 121.732 867.705 116.47 870.539 110.354L870.811 109.76C873.581 103.463 875.009 96.4945 875.096 88.8555L875.101 88.1143ZM842.29 88.1143C842.29 85.2214 841.808 82.3882 840.841 79.6064C839.94 77.0162 838.681 74.7718 837.072 72.8525L836.746 72.4727L836.727 72.4512L836.709 72.4297C834.944 70.3122 832.761 68.5961 830.136 67.2832C827.599 66.0149 824.6 65.3496 821.085 65.3496C817.57 65.3496 814.572 66.015 812.035 67.2832C809.41 68.596 807.226 70.3123 805.462 72.4297C803.82 74.4262 802.508 76.7956 801.54 79.5625C800.694 82.3542 800.271 85.2026 800.271 88.1143L800.275 88.6621C800.325 91.38 800.745 94.043 801.536 96.6562C802.501 99.4188 803.882 101.936 805.681 104.218C807.33 106.19 809.344 107.813 811.742 109.085L812.229 109.336C814.766 110.604 817.765 111.27 821.28 111.27V113.27C817.746 113.27 814.611 112.642 811.877 111.385L811.335 111.125C808.475 109.695 806.07 107.81 804.12 105.47C802.17 103 800.676 100.269 799.636 97.2793C798.783 94.4763 798.329 91.6164 798.275 88.6992L798.271 88.1143C798.271 85.1893 798.67 82.3214 799.47 79.5107L799.636 78.9492C800.676 75.9595 802.105 73.3593 803.925 71.1494C805.753 68.9556 807.981 67.1615 810.609 65.7676L811.141 65.4941C814 64.0643 817.315 63.3496 821.085 63.3496L821.787 63.3584C825.268 63.4422 828.349 64.1536 831.03 65.4941C833.89 66.9241 836.295 68.8095 838.245 71.1494C840.195 73.3594 841.69 75.9593 842.73 78.9492C843.77 81.9391 844.29 84.9944 844.29 88.1143C844.29 91.2342 843.77 94.2894 842.73 97.2793C841.82 100.269 840.39 103 838.44 105.47C836.49 107.81 834.086 109.695 831.226 111.125L830.684 111.385C827.949 112.642 824.815 113.27 821.28 113.27V111.27C824.795 111.27 827.794 110.604 830.331 109.336C832.945 108.029 835.119 106.322 836.879 104.218C838.671 101.945 839.982 99.4424 840.817 96.6973L840.828 96.6592L840.841 96.6221C841.808 93.8403 842.29 91.0072 842.29 88.1143ZM877.096 88.8789C877.006 96.7571 875.531 103.995 872.641 110.565L872.635 110.579C869.668 117.186 865.612 122.87 860.465 127.61L860.455 127.62L860.444 127.63C855.313 132.221 849.379 135.791 842.661 138.344C835.92 140.906 828.722 142.18 821.085 142.18C813.808 142.18 806.832 140.983 800.166 138.585L799.522 138.349L799.51 138.344C792.792 135.791 786.858 132.221 781.727 127.63L781.686 127.593C776.832 123.001 772.942 117.528 770.012 111.194L769.73 110.579L769.725 110.565C766.741 103.783 765.266 96.2891 765.266 88.1143C765.266 79.9404 766.74 72.5059 769.73 65.8457C772.694 59.2455 776.684 53.6228 781.707 49.0068L781.727 48.9893C786.866 44.3907 792.812 40.8813 799.543 38.458L799.555 38.4531C806.406 36.0351 813.587 34.8291 821.085 34.8291C828.471 34.8291 835.445 35.9602 841.995 38.2344L842.628 38.458C849.149 40.8057 854.932 44.1725 859.96 48.5615L860.444 48.9893C865.443 53.4618 869.412 58.883 872.354 65.2285L872.635 65.8457C875.625 72.5059 877.101 79.9404 877.101 88.1143L877.096 88.8789Z" fill="#2D2D2D"/>
<path d="M736.294 77C736.294 72.45 735.644 67.8343 734.344 63.1543C733.174 58.3444 731.224 54.0541 728.494 50.2842C725.935 46.6279 722.575 43.6572 718.416 41.3721L717.574 40.9248C713.43 38.6091 708.315 37.3791 702.229 37.2344L700.999 37.2197C693.719 37.2197 687.544 38.7141 682.474 41.7041C677.404 44.6941 673.244 48.7249 669.994 53.7949C667.349 48.6314 663.667 44.6267 658.948 41.7812L658.489 41.5098C653.83 38.7391 648.132 37.3102 641.398 37.2236L640.744 37.2197C637.104 37.2197 633.724 37.675 630.604 38.585C627.614 39.4949 624.884 40.7301 622.414 42.29L621.954 42.5605C619.677 43.9316 617.685 45.5313 615.979 47.3594C614.289 49.3093 612.858 51.3243 611.688 53.4043H611.299V39.9492H580.294V137.06H612.469V84.4092C612.469 78.7421 613.75 73.9288 616.312 69.9697L616.563 69.5898C619.423 65.5598 623.389 63.5449 628.459 63.5449L628.906 63.5498C633.487 63.6483 636.848 65.2716 638.989 68.4199C641.199 71.6699 642.304 76.09 642.304 81.6797V137.06H674.284V84.6045C674.284 82.0453 674.569 79.6003 675.141 77.2695L675.259 76.8047C675.909 74.2047 676.884 71.9295 678.184 69.9795C679.614 68.0295 681.304 66.4698 683.254 65.2998C685.334 64.1298 687.739 63.5449 690.469 63.5449L690.998 63.5518C693.611 63.6203 695.71 64.2029 697.294 65.2998C699.114 66.3398 700.544 67.7699 701.584 69.5898C702.624 71.4098 703.339 73.6199 703.729 76.2197C704.119 78.6897 704.313 81.2896 704.313 84.0195V137.06H736.294V77ZM613.299 47.46C613.675 46.986 614.064 46.5154 614.468 46.0498L614.491 46.0215L614.517 45.9951C616.471 43.9016 618.76 42.0983 621.373 40.5811C623.997 38.9273 626.883 37.626 630.021 36.6709L630.032 36.668L630.044 36.665C633.366 35.696 636.937 35.2197 640.744 35.2197C648.024 35.2198 654.305 36.7015 659.49 39.7783C663.864 42.3102 667.422 45.7488 670.16 50.0596C673.264 45.9561 677.032 42.5916 681.458 39.9814C686.901 36.7716 693.446 35.2197 700.999 35.2197C707.85 35.2198 713.723 36.4918 718.513 39.1582C723.308 41.6289 727.19 44.9449 730.113 49.1113C733.001 53.0992 735.053 57.6235 736.281 62.6611C737.619 67.4896 738.294 72.2709 738.294 77V139.06H702.313V84.0195C702.313 81.3846 702.125 78.8892 701.753 76.5312L701.752 76.5234L701.751 76.5166C701.411 74.2526 700.818 72.387 700.012 70.8789L699.848 70.582C699.039 69.1665 697.957 68.0465 696.581 67.2012L696.302 67.0361L696.227 66.9932L696.155 66.9443C694.907 66.0805 693.076 65.5449 690.469 65.5449C688.043 65.5449 685.993 66.0592 684.258 67.0293C682.571 68.0462 681.091 69.4049 679.819 71.1309C678.677 72.856 677.797 74.9005 677.199 77.29L677.193 77.3135C676.59 79.6063 676.284 82.0345 676.284 84.6045V139.06H640.304V81.6797C640.304 76.4956 639.308 72.5995 637.512 69.8105L637.335 69.5439C635.583 66.9677 632.775 65.545 628.459 65.5449C624.026 65.5449 620.681 67.2543 618.209 70.7256C615.752 74.36 614.469 78.8847 614.469 84.4092V139.06H578.294V37.9492H613.299V47.46Z" fill="#2D2D2D"/>
<path d="M480.014 92.5996V39.9492H447.839V100.01L447.846 100.935C447.914 105.558 448.497 110.125 449.594 114.635C450.894 119.315 452.909 123.54 455.639 127.31C458.499 130.95 462.139 133.939 466.559 136.279C470.824 138.473 475.946 139.638 481.926 139.775L483.134 139.79C486.514 139.79 489.699 139.335 492.688 138.425C495.808 137.515 498.603 136.345 501.073 134.915C503.511 133.574 505.605 132.005 507.357 130.207L507.703 129.845C509.653 127.895 511.214 125.814 512.384 123.604H512.773V137.06H543.584V39.9492H511.604V92.4043L511.599 92.9268C511.508 98.2987 510.015 102.999 507.118 107.029C504.258 111.189 500.033 113.27 494.443 113.27V111.27C499.458 111.27 503.028 109.449 505.471 105.896L505.482 105.879L505.494 105.862C508.217 102.074 509.604 97.6156 509.604 92.4043V37.9492H545.584V139.06H510.773V129.47C510.253 130.079 509.701 130.676 509.118 131.259C507.148 133.358 504.78 135.158 502.037 136.667C499.42 138.178 496.486 139.4 493.248 140.345L493.247 140.344C490.061 141.311 486.686 141.79 483.134 141.79C476.61 141.79 470.909 140.652 466.105 138.29L465.644 138.059L465.633 138.053L465.623 138.047C460.976 135.587 457.112 132.422 454.065 128.545L454.042 128.515L454.019 128.482C451.323 124.76 449.295 120.622 447.931 116.083L447.666 115.17L447.65 115.107C446.443 110.143 445.839 105.109 445.839 100.01V37.9492H482.014V92.5996L482.022 93.5811C482.058 95.5312 482.199 97.4029 482.443 99.1973L482.574 100.088C482.931 102.346 483.575 104.324 484.484 106.043C485.488 107.703 486.745 109.009 488.256 109.992C489.67 110.789 491.684 111.27 494.443 111.27V113.27C491.454 113.27 489.048 112.75 487.229 111.71C485.409 110.54 483.913 108.979 482.743 107.029C481.768 105.201 481.079 103.144 480.676 100.859L480.599 100.399C480.257 98.2382 480.065 95.9775 480.022 93.6172L480.014 92.5996Z" fill="#2D2D2D"/>
<path d="M350.547 37.9492L369.861 97.3652L389.176 37.9492H427.69L387.896 139.06H350.656L310.862 37.9492H350.547ZM313.799 39.9492L352.019 137.06H386.534L424.754 39.9492H390.629L370.154 102.935H369.569L349.094 39.9492H313.799Z" fill="#2D2D2D"/>
<path d="M191.736 88.8945C191.736 80.7325 193.142 73.3086 195.993 66.6562C198.82 59.9301 202.675 54.236 207.573 49.6104C212.45 44.8743 218.2 41.2288 224.799 38.6699C231.418 36.1033 238.555 34.8291 246.191 34.8291C253.562 34.8291 260.378 36.1017 266.614 38.6719C272.667 41.0402 277.911 44.5021 282.322 49.0537L282.747 49.4971C287.237 54.2591 290.684 60.0173 293.106 66.7344C295.678 73.501 296.941 81.1587 296.941 89.6748V93.5742C296.941 94.9403 296.873 96.2497 296.734 97.5L296.537 99.2793H226.689C227.045 100.856 227.616 102.308 228.397 103.645C229.693 105.638 231.279 107.402 233.161 108.94C235.203 110.375 237.424 111.514 239.832 112.356C242.35 113.193 244.923 113.609 247.557 113.609V115.609C244.697 115.609 241.902 115.154 239.172 114.244C236.572 113.334 234.167 112.1 231.957 110.54C229.877 108.85 228.121 106.899 226.691 104.689C225.391 102.48 224.612 100.009 224.352 97.2793H294.747L294.832 96.3896C294.905 95.4878 294.941 94.5491 294.941 93.5742V89.6748C294.941 81.3548 293.706 73.9443 291.236 67.4443C288.969 61.1476 285.788 55.7656 281.691 51.2988L281.292 50.8691C277.002 46.3192 271.867 42.8742 265.887 40.5342C259.907 38.0642 253.341 36.8291 246.191 36.8291C238.782 36.8291 231.891 38.0642 225.521 40.5342C219.152 43.0042 213.626 46.5145 208.946 51.0645C204.266 55.4844 200.562 60.9446 197.832 67.4443C195.102 73.8143 193.736 80.9645 193.736 88.8945C193.736 97.0845 195.102 104.364 197.832 110.734C200.692 117.104 204.527 122.5 209.337 126.92C214.277 131.21 219.997 134.524 226.497 136.864C232.591 138.936 239.027 140.038 245.807 140.167L247.167 140.18C256.738 140.18 265.15 138.532 272.403 135.238L273.102 134.915C280.641 131.275 286.686 126.14 291.236 119.51L269.007 105.47C266.797 108.46 263.937 110.93 260.427 112.88L259.76 113.21C256.378 114.81 252.31 115.609 247.557 115.609V113.609C252.376 113.609 256.32 112.746 259.471 111.121C262.744 109.3 265.375 107.019 267.398 104.281L268.503 102.786L294.062 118.928L292.886 120.642C288.13 127.571 281.812 132.931 273.972 136.716L273.958 136.722C266.231 140.382 257.283 142.18 247.167 142.18C239.681 142.18 232.572 141.042 225.853 138.758L225.819 138.746C219.31 136.403 213.534 133.104 208.51 128.845L208.025 128.43L208.004 128.411L207.983 128.393C202.96 123.777 198.97 118.154 196.007 111.554L195.993 111.522C193.139 104.863 191.736 97.3069 191.736 88.8945ZM246.387 58.8643C252.757 58.8643 257.502 60.6842 260.622 64.3242C263.872 67.9642 265.497 72.3196 265.497 77.3896H224.352C224.473 75.0739 225.053 72.8724 226.089 70.7852L226.302 70.3691C227.472 68.0293 229.032 66.0141 230.981 64.3242C232.931 62.6343 235.207 61.3348 237.807 60.4248C240.407 59.3848 243.267 58.8643 246.387 58.8643ZM246.387 60.8643C243.492 60.8643 240.888 61.346 238.55 62.2812L238.509 62.2979L238.468 62.3125C236.09 63.1448 234.039 64.3222 232.292 65.8359C230.544 67.3513 229.145 69.1556 228.091 71.2637L228.08 71.2852L228.069 71.3057C227.374 72.6196 226.889 73.9791 226.61 75.3896H263.399C263.045 71.7907 261.71 68.6684 259.398 65.9639L259.13 65.6562L259.116 65.6416L259.104 65.626C256.479 62.5635 252.376 60.8643 246.387 60.8643Z" fill="#2D2D2D"/>
<path d="M107.346 142.06L42.3242 51.7746H41.6398L42.5524 142.06H4.68008V3.99957H49.1686L113.962 94.0896H114.647L113.734 3.99957H151.606V142.06H107.346Z" fill="#FF6600"/>
<path d="M113.734 4L114.647 94.0898H113.962L49.1689 4H4.67992V142.06H42.5523L41.6394 51.7744H42.3238L107.346 142.06H151.606V4H113.734ZM156.286 146.06H104.732L46.4542 65.1406L47.2734 146.06H0V0H51.7854L109.831 80.707L109.014 0H156.286V146.06Z" fill="#FF6600"/>
<path d="M114.143 139.798C116.112 141.987 115.344 144.724 112.427 145.911C109.509 147.097 105.548 146.285 103.579 144.096L37.8467 71.0234C35.8774 68.8342 36.6459 66.0975 39.5631 64.9107C42.4803 63.7239 46.4416 64.5365 48.4109 66.7257L114.143 139.798Z" fill="#FF6600"/>
<path d="M121.513 82.1565C123.87 84.7878 122.94 88.0713 119.436 89.4902C115.933 90.9092 111.182 89.9264 108.826 87.2952L38.5479 8.82395C36.1914 6.19265 37.1212 2.90923 40.6247 1.49023C44.1282 0.0712277 48.8787 1.05399 51.2353 3.68528L121.513 82.1565Z" fill="#FF6600"/>
</svg>
